<svg xmlns="http://www.w3.org/2000/svg" width="512.1063829409477" height="372.1276595798646" style=""><rect id="backgroundrect" width="100%" height="100%" x="0" y="0" fill="none" stroke="none"/><g class="currentLayer" style=""><title>Layer 1</title><path fill="#000000" d="M1.10638427734375,0.871105892689888 h37.10175164222717 v369.8322536520958 H1.10638427734375 zM108.8444726717472,0.871105892689888 h37.10175164222717 v369.8322536520958 h-37.10175164222717 zM435.51187311410905,370.7033595447857 H210.58317455530164 V336.5008503296692 H435.51187311410905 c0.14354524970054633,0 14.581245971918106,-0.1272581870555878 26.00583799481392,-10.637287282705307 c10.423799908161163,-9.584288166284562 14.742231298685075,-33.37034048211574 11.556063373088838,-63.59166464924812 c-2.2350129532814034,-21.227164652585984 -30.3497587287426,-31.818289651751517 -32.06022782564163,-32.443351923465734 c-18.084018373489382,-5.902534146666526 -167.34156408548355,-54.67860103821754 -186.23989990353581,-62.502484283566474 c-23.821803728342058,-9.838804540395737 -38.38963425636292,-33.58867560696602 -39.96997354745865,-36.2748214572668 l-0.5406423890590668,-0.9719032129049301 c-0.7593141245841983,-1.5171172103881836 -18.43281991481781,-37.43262143361569 -2.9124928700923918,-79.21697381281852 c17.09395861387253,-46.00882513773442 78.6332828593254,-49.827818378686906 81.24661133050918,-49.96755285859108 l1.0571369791030885,-0.023704956412315382 h201.04518378853797 V35.073615107806376 H294.3451816165448 c-4.02060853600502,0.3356122776269913 -39.68422459244728,3.9587277208566665 -48.2285208106041,26.957525957942007 c-9.769126245975494,26.297530066251753 -0.27367505550384524,49.64441687381267 1.2516609156131746,53.09286421716213 c3.0681120193004605,4.860763693809509 12.122195105552672,16.72447056353092 22.340738722085952,20.950190951347352 c14.909924347400667,6.16827918434143 137.65721137404444,46.51785788595676 183.70169791817665,61.54180973422527 l0.19854856967926035,0.06986723995208743 c2.103541603088379,0.7061581752300266 51.507255299091334,17.917204159855842 56.07521394610405,61.252359740138054 c3.09896754026413,29.411612761259082 1.742666162252426,69.12365289831162 -22.296467757225038,91.24287248957157 c-21.240672322511674,19.5378746008873 -46.940638196468356,20.52225410664082 -51.876180006265635,20.52225410664082 z" id="svg_1" class=""/></g></svg>