<?xml version="1.0" standalone="no"?>
<!DOCTYPE svg PUBLIC "-//W3C//DTD SVG 20010904//EN"
 "http://www.w3.org/TR/2001/REC-SVG-20010904/DTD/svg10.dtd">
<svg version="1.0" xmlns="http://www.w3.org/2000/svg"
 width="200.000000pt" height="165.000000pt" viewBox="0 0 200.000000 165.000000"
 preserveAspectRatio="xMidYMid meet">
<metadata>
Created by potrace 1.15, written by Peter Selinger 2001-2017
</metadata>
<g transform="translate(0.000000,165.000000) scale(0.100000,-0.100000)"
fill="#000000" stroke="none">
<path d="M507 1533 c-3 -5 -48 -83 -101 -175 l-97 -168 102 -175 102 -175 205
2 205 3 100 173 99 173 -99 172 -99 172 -206 3 c-114 1 -209 -1 -211 -5z m400
-465 l26 -48 -26 -47 -26 -48 -64 -3 -65 -3 -26 47 c-14 26 -26 50 -26 54 0 4
12 28 26 54 l26 47 65 -3 64 -3 26 -47z"/>
<path d="M735 1070 c-30 -48 -30 -45 -3 -97 l23 -43 60 0 60 0 23 43 c27 52
27 49 -3 97 -24 39 -27 40 -80 40 -53 0 -56 -1 -80 -40z"/>
<path d="M1153 1158 c-6 -7 -53 -88 -106 -180 l-95 -167 48 -81 c27 -44 72
-123 102 -176 l53 -94 205 2 204 3 98 170 c54 93 98 174 98 180 0 5 -45 87
-99 180 l-99 170 -200 3 c-152 2 -202 -1 -209 -10z m300 -308 l28 -50 -27 -50
-27 -50 -63 0 -62 0 -31 50 -31 50 31 50 31 50 61 0 62 0 28 -50z"/>
<path d="M1278 845 l-27 -45 27 -45 c27 -44 27 -44 84 -45 l57 0 27 45 26 45
-26 45 -27 45 -57 0 c-57 -1 -57 -1 -84 -45z"/>
<path d="M496 768 c-29 -46 -186 -321 -186 -327 0 -3 44 -82 98 -176 l98 -170
206 -3 205 -2 102 175 101 176 -101 175 -101 174 -204 0 c-200 0 -204 0 -218
-22z m509 -280 l27 -53 -27 -47 -27 -48 -62 0 -63 0 -30 49 -31 48 30 52 30
51 63 0 63 0 27 -52z"/>
<path d="M831 485 l-25 -47 24 -44 25 -44 57 0 c57 0 58 1 84 42 l27 43 -25
45 c-25 45 -26 45 -84 48 l-59 3 -24 -46z"/>
</g>
</svg>
